<?xml version="1.0" standalone="no"?>
<!DOCTYPE svg PUBLIC "-//W3C//DTD SVG 20010904//EN"
 "http://www.w3.org/TR/2001/REC-SVG-20010904/DTD/svg10.dtd">
<svg version="1.0" xmlns="http://www.w3.org/2000/svg"
 width="501.000000pt" height="501.000000pt" viewBox="0 0 501.000000 501.000000"
 preserveAspectRatio="xMidYMid meet">
<metadata>
Created by potrace 1.14, written by Peter Selinger 2001-2017
</metadata>
<g transform="translate(0.000000,501.000000) scale(0.100000,-0.100000)"
fill="#000000" stroke="none">
<path d="M2430 4810 c-54 -15 -136 -67 -296 -187 -77 -58 -134 -122 -134 -150
0 -22 42 -114 70 -153 11 -15 17 -29 14 -32 -11 -12 22 -25 44 -17 36 14 26
47 -12 40 -18 -4 4 84 31 123 32 46 133 108 133 82 0 -8 -14 -24 -30 -36 -17
-12 -37 -34 -45 -50 -14 -27 -13 -31 9 -58 22 -25 24 -33 15 -70 -5 -23 -11
-57 -14 -75 -3 -18 -11 -55 -18 -82 -11 -45 -17 -52 -65 -78 -89 -46 -111 -77
-106 -142 5 -78 108 -284 178 -358 17 -18 74 -60 126 -92 146 -90 158 -101
165 -145 4 -22 7 -42 7 -45 0 -2 6 -28 14 -57 7 -29 14 -71 14 -93 0 -37 -3
-42 -33 -53 -18 -7 -61 -12 -96 -12 -64 0 -131 -21 -131 -40 0 -7 -15 -44 -34
-83 -42 -90 -54 -132 -49 -178 3 -31 -2 -41 -37 -75 -39 -38 -46 -53 -220
-449 -42 -95 -48 -129 -45 -240 1 -61 3 -113 4 -117 0 -5 11 -8 23 -8 14 0 46
-25 90 -70 l67 -69 -43 -73 c-24 -40 -72 -121 -106 -181 -130 -220 -208 -266
-300 -175 -14 13 -47 40 -73 58 -42 30 -57 35 -106 35 -66 0 -90 -14 -196
-116 -80 -77 -168 -149 -183 -149 -5 0 -14 -6 -20 -13 -6 -7 -44 -25 -86 -41
-43 -17 -72 -33 -70 -40 5 -12 91 -81 133 -107 108 -66 213 -109 346 -143 183
-46 446 -53 760 -21 54 6 123 27 168 51 l27 15 21 -46 c24 -54 19 -92 -15
-124 -20 -19 -22 -27 -15 -59 7 -32 2 -50 -41 -146 -28 -60 -50 -118 -50 -130
0 -42 22 -99 48 -123 24 -23 33 -25 90 -20 73 6 169 48 182 81 5 11 11 33 14
48 4 19 18 34 44 47 59 30 75 55 80 120 3 36 -1 67 -9 82 -7 13 -11 47 -10 76
1 39 -5 69 -25 113 l-26 59 20 28 c10 15 18 35 17 43 -18 115 -16 144 19 230
20 47 54 109 77 138 23 28 43 52 44 52 1 0 2 -14 3 -32 0 -17 7 -35 14 -39 41
-26 43 -28 30 -41 -17 -17 -15 -45 5 -56 31 -18 40 -81 37 -258 -1 -112 -8
-196 -19 -249 -9 -44 -18 -107 -20 -139 -3 -53 -1 -61 24 -85 15 -14 41 -34
59 -43 18 -9 37 -30 43 -45 34 -85 40 -95 76 -110 53 -22 141 -14 187 18 43
29 60 67 52 112 -7 40 -51 134 -74 160 -12 14 -16 35 -14 86 3 57 -1 75 -23
117 l-26 48 26 57 c14 31 25 71 25 89 0 17 7 45 17 60 15 26 15 29 0 45 -13
12 -14 21 -7 35 11 20 -5 70 -22 70 -5 0 -2 10 6 22 22 31 20 55 -8 124 -24
58 -24 59 -6 94 30 60 62 181 57 219 -2 20 -25 115 -50 211 -64 247 -75 331
-53 413 74 279 130 432 179 488 12 14 56 40 97 58 41 18 95 42 120 53 25 11
61 27 80 35 161 71 198 92 220 127 26 43 29 94 8 156 -9 25 -24 81 -33 124
-10 44 -27 100 -39 126 -30 65 -95 150 -114 150 -21 1 -56 32 -100 87 -18 23
-57 57 -86 77 -32 21 -64 53 -79 78 -31 54 -56 82 -84 96 -34 19 -61 14 -69
-10 -6 -19 4 -33 60 -84 36 -34 66 -65 66 -68 0 -18 -40 -2 -56 22 -40 62 -89
113 -105 109 -10 -3 -35 13 -60 35 -24 22 -56 51 -72 64 -38 32 -46 60 -34
119 16 79 4 116 -55 171 -79 76 -98 96 -98 108 0 6 20 23 45 38 67 41 85 97
36 116 -10 4 -58 48 -105 99 -140 148 -338 264 -416 243z m824 -1155 c6 -16
-23 -30 -36 -17 -13 13 1 42 17 36 7 -3 16 -12 19 -19z m-29 -161 l0 -49 65
-32 c79 -39 123 -78 131 -115 7 -30 4 -32 -116 -62 -33 -8 -115 -33 -182 -56
-66 -22 -128 -40 -137 -40 -9 0 -36 -10 -59 -21 l-42 -21 45 41 c41 39 48 42
90 38 81 -7 122 22 148 103 24 74 35 213 21 263 -8 28 -7 28 14 14 18 -12 22
-24 22 -63z m-380 -395 c17 0 23 -3 15 -6 -8 -3 -21 -12 -28 -21 -11 -15 -15
-15 -41 1 -16 9 -36 17 -45 17 -10 0 -16 9 -16 25 l0 24 43 -19 c23 -11 56
-20 72 -21z"/>
</g>
</svg>
